<?xml version="1.0" encoding="UTF-8" standalone="no"?>
<!-- Created with Inkscape (http://www.inkscape.org/) -->

<svg
   width="105.17995mm"
   height="41.712521mm"
   viewBox="0 0 105.17995 41.712521"
   version="1.1"
   id="svg5"
   inkscape:version="1.1.2 (0a00cf5339, 2022-02-04)"
   sodipodi:docname="timeless_logo_white.svg"
   xmlns:inkscape="http://www.inkscape.org/namespaces/inkscape"
   xmlns:sodipodi="http://sodipodi.sourceforge.net/DTD/sodipodi-0.dtd"
   xmlns="http://www.w3.org/2000/svg"
   xmlns:svg="http://www.w3.org/2000/svg">
  <sodipodi:namedview
     id="namedview7"
     pagecolor="#ffffff"
     bordercolor="#000000"
     borderopacity="0.25"
     inkscape:pageshadow="2"
     inkscape:pageopacity="0.0"
     inkscape:pagecheckerboard="0"
     inkscape:document-units="mm"
     showgrid="false"
     inkscape:zoom="3.126804"
     inkscape:cx="198.76526"
     inkscape:cy="78.514675"
     inkscape:window-width="1850"
     inkscape:window-height="1016"
     inkscape:window-x="70"
     inkscape:window-y="27"
     inkscape:window-maximized="1"
     inkscape:current-layer="text2295"
     inkscape:snap-to-guides="false"
     inkscape:snap-others="true"
     inkscape:snap-nodes="false" />
  <defs
     id="defs2">
    <marker
       style="overflow:visible"
       id="Arrow1Lstart"
       refX="0.0"
       refY="0.0"
       orient="auto"
       inkscape:stockid="Arrow1Lstart"
       inkscape:isstock="true">
      <path
         transform="scale(0.8) translate(12.5,0)"
         style="fill-rule:evenodd;fill:context-stroke;stroke:context-stroke;stroke-width:1.0pt"
         d="M 0.0,0.0 L 5.0,-5.0 L -12.5,0.0 L 5.0,5.0 L 0.0,0.0 z "
         id="path85294" />
    </marker>
    <rect
       x="54.053802"
       y="290.43799"
       width="674.81146"
       height="368.13312"
       id="rect2297" />
  </defs>
  <g
     inkscape:label="Layer 1"
     inkscape:groupmode="layer"
     id="layer1"
     transform="translate(-7.0061669,-67.057686)"
     style="display:inline">
    <g
       aria-label="TimOLess "
       transform="matrix(0.26458333,0,0,0.26458333,-2.454756,1.5601647)"
       id="text2295"
       style="font-size:96px;font-family:'Sree Krushnadevaraya';-inkscape-font-specification:'Sree Krushnadevaraya';white-space:pre;shape-inside:url(#rect2297);stroke-width:3.77953;stroke-linecap:round;stroke-linejoin:round;paint-order:markers stroke fill">
      <path
         style="font-family:Timmana;-inkscape-font-specification:Timmana;fill:#ffffff"
         d="m 121.57579,327.62768 q -0.512,3.072 -2.688,5.12 -2.176,1.92 -4.992,1.92 -2.944,0 -4.608,-1.92 -1.664,-2.048 -1.28,-5.12 0.64,-3.2 2.816,-5.248 2.176,-2.048 5.12,-2.048 2.816,0 4.352,2.048 1.664,2.048 1.28,5.248 z"
         id="path82237" />
      <path
         d="m 130.35165,321.49734 h 10.496 l -0.512,6.016 q 0.64,-0.512 1.664,-1.664 1.152,-1.28 2.688,-2.432 1.536,-1.152 3.584,-2.048 2.048,-0.896 4.608,-0.896 3.968,0 6.016,1.536 2.048,1.408 2.56,5.376 0.512,-0.768 1.664,-1.92 1.152,-1.152 2.816,-2.176 1.664,-1.152 3.712,-1.92 2.048,-0.896 4.352,-0.896 5.76,0 7.808,3.584 2.048,3.584 0.896,12.032 l -4.096,30.72 h -11.904 l 3.968,-29.696 q 0.64,-2.944 0.128,-4.608 -0.512,-1.664 -2.816,-1.664 -1.152,0 -2.304,0.64 -1.024,0.512 -2.048,1.28 -0.896,0.768 -1.536,1.664 -0.64,0.768 -0.896,1.408 l -4.224,30.976 h -11.52 l 4.224,-29.696 q 0.512,-2.944 0,-4.608 -0.512,-1.664 -2.944,-1.664 -1.152,0 -2.304,0.64 -1.024,0.512 -1.92,1.28 -0.768,0.768 -1.536,1.664 -0.64,0.768 -0.896,1.408 l -4.352,30.976 h -11.776 z"
         style="font-family:Timmana;-inkscape-font-specification:Timmana;fill:#ffffff"
         id="path82239" />
      <path
         style="font-size:96px;font-family:Timmana;-inkscape-font-specification:Timmana;white-space:pre;shape-inside:url(#rect2297);display:inline;fill:#ffffff;stroke-width:3.77953;stroke-linecap:round;stroke-linejoin:round;paint-order:markers stroke fill"
         d="m 114.18399,367.70238 h -11.52 l 4.224,-29.696 h 11.294"
         id="path4945" />
      <path
         style="font-size:96px;font-family:Timmana;-inkscape-font-specification:Timmana;white-space:pre;shape-inside:url(#rect2297);display:inline;fill:#ffffff;stroke-width:3.77953;stroke-linecap:round;stroke-linejoin:round;paint-order:markers stroke fill"
         d="m 92.935991,367.70239 h -11.776 l 6.4,-53.8054 c 0,0 13.199019,0.13284 12.691619,0.0249"
         id="path82239-3" />
      <path
         style="font-size:96px;font-family:Timmana;-inkscape-font-specification:Timmana;white-space:pre;shape-inside:url(#rect2297);display:inline;fill:#ffffff;stroke-width:3.77953;stroke-linecap:round;stroke-linejoin:round;paint-order:markers stroke fill"
         d="m 290.20844,366.03319 h -11.776 l 6.4,-53.8054 c 0,0 13.19901,0.13284 12.69161,0.0249"
         id="path82239-3-5" />
      <path
         d="m 316.63786,331.75695 c -1.536,0 -3.11467,0.85333 -4.736,2.56 -1.536,1.62133 -2.60267,4.56533 -3.2,8.832 h 12.032 c 0.59733,-4.352 0.46933,-7.33867 -0.384,-8.96 -0.85333,-1.62133 -2.09067,-2.432 -3.712,-2.432 z m 10.51807,34.83724 c -0.34134,0.256 -0.4914,0.49076 -1.43007,1.00276 -0.85333,0.42667 -2.00533,0.896 -3.456,1.408 -1.36533,0.42667 -2.98667,0.81067 -4.864,1.152 -1.792,0.42667 -3.75467,0.64 -5.888,0.64 -2.47467,0 -4.82133,-0.42667 -7.04,-1.28 -2.13333,-0.85333 -3.92533,-2.176 -5.376,-3.968 -1.36533,-1.87733 -2.34667,-4.224 -2.944,-7.04 -0.59733,-2.90133 -0.59733,-6.31467 0,-10.24 0.59733,-4.352 1.57867,-8.064 2.944,-11.136 1.45067,-3.072 3.11467,-5.632 4.992,-7.68 1.96267,-2.048 4.096,-3.584 6.4,-4.608 2.38933,-1.024 4.864,-1.536 7.424,-1.536 2.47467,0 4.69333,0.42667 6.656,1.28 1.96267,0.768 3.584,2.00533 4.864,3.712 1.28,1.70667 2.176,3.88267 2.688,6.528 0.512,2.64533 0.512,5.84533 0,9.6 -0.256,1.62133 -0.55467,3.02933 -0.896,4.224 -0.256,1.10933 -0.46933,1.74933 -0.64,1.92 h -22.912 c -0.59733,3.92533 -0.17067,6.784 1.28,8.576 1.536,1.70667 3.584,2.56 6.144,2.56 1.10933,0 2.21867,-0.0853 3.328,-0.256 1.19467,-0.256 2.26133,-0.55467 3.2,-0.896 1.024,-0.34133 1.92,-0.68267 2.688,-1.024 0.768,-0.34133 4.66917,-2.37175 5.2665,-2.71308 z"
         style="font-family:Timmana;-inkscape-font-specification:Timmana;fill:#ffffff"
         id="path82245"
         sodipodi:nodetypes="scccssccccscccccccscsscccccsccscc" />
      <path
         d="m 330.29609,357.39288 c -0.40046,-1.6e-4 3.64759,3.20475 4.34855,3.50677 0.70094,0.30202 1.48708,0.5992 2.35842,0.89152 l 2.85507,0.60687 c 1.03688,0.19744 2.0665,0.26708 3.08884,0.20893 1.78912,-0.10174 3.1377,-0.43487 4.04579,-0.99934 0.98842,-0.65451 1.56198,-1.84099 1.72065,-3.55945 0.10738,-1.11722 -0.2063,-2.12503 -0.94119,-3.02343 -0.73971,-0.98358 -1.68999,-1.91245 -2.85083,-2.78662 -1.07565,-0.879 -2.27909,-1.75074 -3.61032,-2.61521 -1.33609,-0.94967 -2.54922,-1.99179 -3.6394,-3.12639 -1.09503,-1.21979 -1.98434,-2.57949 -2.66793,-4.07909 -0.68358,-1.4996 -0.95573,-3.27902 -0.81644,-5.33826 0.36863,-4.03811 1.93829,-7.24708 4.70896,-9.62691 2.85103,-2.46988 6.74721,-3.84534 11.68855,-4.12637 2.98185,-0.16959 5.38186,-0.0497 7.20004,0.35975 1.89853,0.31938 3.23845,0.58505 4.01975,0.79703 l -1.29487,8.79171 c -0.68641,-0.0464 -1.89611,-0.27678 -3.6291,-0.69104 -1.64778,-0.41912 -3.40883,-0.57537 -5.28314,-0.46877 -3.57822,0.20351 -5.51247,1.51012 -5.80279,3.91982 -0.10738,1.11724 0.2063,2.12504 0.94121,3.02344 0.81521,0.80834 1.80324,1.64959 2.96409,2.52376 1.15599,0.78896 2.44463,1.65585 3.86591,2.60068 1.41642,0.85962 2.71233,1.8543 3.8877,2.98406 1.17539,1.12975 2.1073,2.48702 2.79572,4.07182 0.68359,1.4996 0.91556,3.32404 0.69592,5.47331 -0.0638,1.88399 -0.47564,3.65958 -1.23552,5.32675 -0.7599,1.66718 -1.82766,3.18091 -3.20332,4.54123 -1.29528,1.27026 -2.9459,2.30431 -4.95183,3.10218 -2.00109,0.88305 -4.40735,1.40452 -7.21882,1.56442 -1.8743,0.10661 -3.58548,0.0757 -5.13354,-0.0927 -1.46286,-0.17321 -2.80277,-0.43888 -4.01974,-0.79703 -1.13176,-0.36299 -2.63059,-0.54007 -3.50193,-0.83239 l -3.98349,-2.59998 z"
         style="font-family:Timmana;-inkscape-font-specification:Timmana;fill:#ffffff"
         id="path82247"
         sodipodi:nodetypes="csccsccccccsccsccccsccccsccsccsccccc" />
      <path
         d="m 361.53713,357.81187 c 0.72484,0.40436 2.01222,1.10196 2.71317,1.40398 0.70095,0.30201 1.48709,0.59919 2.35843,0.89151 l 2.85506,0.60687 c 1.03688,0.19744 2.0665,0.26709 3.08885,0.20894 1.78911,-0.10175 3.1377,-0.43487 4.04578,-0.99934 0.98844,-0.65452 1.56198,-1.841 1.72067,-3.55945 0.10738,-1.11723 -0.2063,-2.12504 -0.94121,-3.02344 -0.73971,-0.98358 -1.68999,-1.91245 -2.85083,-2.78662 -1.07564,-0.879 -2.27908,-1.75074 -3.61032,-2.61521 -1.33608,-0.94967 -2.54921,-1.99179 -3.6394,-3.12639 -1.09503,-1.21978 -1.98434,-2.57948 -2.66792,-4.07909 -0.68359,-1.4996 -0.95574,-3.27902 -0.81644,-5.33824 0.36863,-4.03813 1.93829,-7.24709 4.70896,-9.62693 2.85102,-2.46987 6.7472,-3.84533 11.68854,-4.12637 2.98186,-0.16959 5.38187,-0.0497 7.20005,0.35975 1.89853,0.31938 3.23844,0.58505 4.01975,0.79703 l -1.29488,8.79171 c -0.68641,-0.0464 -1.89611,-0.27678 -3.62909,-0.69104 -1.64779,-0.41911 -3.40884,-0.57537 -5.28314,-0.46877 -3.57822,0.20351 -5.51248,1.51013 -5.80279,3.91983 -0.10738,1.11723 0.2063,2.12503 0.9412,3.02343 0.81521,0.80834 1.80325,1.64959 2.96409,2.52376 1.15599,0.78896 2.44463,1.65586 3.86591,2.60068 1.41642,0.85963 2.71233,1.85431 3.88772,2.98406 1.17537,1.12975 2.10728,2.48702 2.79572,4.07182 0.68358,1.4996 0.91555,3.32405 0.69591,5.47332 -0.0638,1.88398 -0.47564,3.65958 -1.23553,5.32674 -0.75989,1.66718 -1.82766,3.18092 -3.2033,4.54123 -1.2953,1.27026 -2.94592,2.30432 -4.95185,3.10218 -2.00108,0.88305 -4.40735,1.40453 -7.21881,1.56442 -1.8743,0.10661 -3.58549,0.0757 -5.13354,-0.0927 -1.46287,-0.17321 -2.80277,-0.43888 -4.01975,-0.79703 -1.13176,-0.36298 -2.13332,-0.69064 -3.00466,-0.98297 -0.79099,-0.38238 -3.45956,-1.42858 -3.81487,-1.66479 2.04166,-3.32966 2.5784,-4.1821 3.56852,-8.21293 z"
         style="font-family:Timmana;-inkscape-font-specification:Timmana;fill:#ffffff"
         id="path82249"
         sodipodi:nodetypes="csccsccccccsccsccccsccccsccsccsccccc" />
      <path
         style="fill:none;stroke:#ffffff;stroke-width:7.55906;stroke-linecap:round;stroke-linejoin:round;stroke-miterlimit:4;stroke-dasharray:none;paint-order:markers stroke fill"
         id="path83978"
         sodipodi:type="arc"
         sodipodi:cx="227.47386"
         sodipodi:cy="340.73306"
         sodipodi:rx="39.7845"
         sodipodi:ry="39.7845"
         sodipodi:start="1.0484391"
         sodipodi:end="5.7301214"
         sodipodi:arc-type="slice"
         d="m 247.32332,375.21212 a 39.7845,39.7845 0 0 1 -54.12354,-14.27773 39.7845,39.7845 0 0 1 13.72301,-54.26685 39.7845,39.7845 0 0 1 54.40446,13.16685 l -33.85339,20.89867 z" />
      <path
         style="fill:none;stroke:#000000;stroke-width:3.77953;stroke-linecap:round;stroke-linejoin:round;stroke-miterlimit:4;stroke-dasharray:none;paint-order:markers stroke fill"
         d="m 226.84487,381.66232 v -12.08817 m 0,-56.89119 v -13.57415"
         id="path85079"
         sodipodi:nodetypes="cccc" />
      <path
         id="path85079-5"
         style="font-size:96px;font-family:'Sree Krushnadevaraya';-inkscape-font-specification:'Sree Krushnadevaraya';white-space:pre;shape-inside:url(#rect2297);fill:none;stroke:#ffffff;stroke-width:3.77953;stroke-linecap:round;stroke-linejoin:round;stroke-miterlimit:4;stroke-dasharray:none;paint-order:markers stroke fill"
         d="m 226.84493,299.10903 v 13.57422 z m -20.25,5.76367 6.78711,11.75586 z m 40.98047,0.80078 -6.04492,10.4668 z m -56.30664,14.17969 11.75391,6.78711 z m -5.34766,20.39258 h 13.57422 z m 17.47071,13.46875 -11.75586,6.78711 z m 9.69336,10.84617 -6.78711,11.75586 z m 13.75976,5.0132 v 12.08789 z"
         sodipodi:nodetypes="cccccccccccccccccccccccc" />
      <path
         style="fill:none;stroke:#ffffff;stroke-width:3.77953;stroke-linecap:round;stroke-linejoin:round;stroke-miterlimit:4;stroke-dasharray:none;paint-order:markers stroke fill"
         d="m 226.84487,381.66232 v -12.08817 m 0,-56.89119 v -13.57415"
         id="path89300"
         sodipodi:nodetypes="cccc" />
      <path
         style="fill:none;stroke:#ffffff;stroke-width:12.0945;stroke-linecap:square;stroke-linejoin:round;stroke-miterlimit:4;stroke-dasharray:none;paint-order:normal"
         d="m 181.81677,313.03575 c -14.87796,-7.26093 -40.99874,-10.99969 -57.29058,-6.56695 -55.906651,14.89847 -68.262922,10.08097 -64.216095,-1.91903 2.979047,-8.83372 37.056091,-9.24162 32.240177,22.78855 m 302.420918,51.07531 c -7.71543,3.52634 -42.21283,17.81353 -98.20042,-3.05375 0,0 -35.53594,-14.98241 -39.58717,3.34461 -2.56793,11.61685 23.38878,19.74027 28.72094,-26.39313"
         id="path8774"
         sodipodi:nodetypes="ccccscsc" />
    </g>
  </g>
</svg>
